<svg height="9pt" viewBox="0 0 512 512" width="9pt" xmlns="http://www.w3.org/2000/svg"><path d="m481.273438 199.15625c13.179687 29.386719 31.195312 84.78125 22.84375 155.925781l-1.941407 16.527344-48.019531-10.800781c-5.578125 13.289062-16.398438 34.960937-35.035156 58.003906-27.246094 33.703125-77.207032 77.070312-160.433594 92.25l-2.609375.476562-.078125-.007812-2.527344-.441406c-38.921875-6.664063-73.671875-19.335938-103.289062-37.660156-23.914063-14.789063-44.507813-33.253907-61.222656-54.875-17.515626-22.652344-27.070313-44.039063-31.914063-57.566407l-47.222656 10.621094-1.941407-16.527344c-8.351562-71.144531 9.664063-126.539062 22.84375-155.925781h-30.726562l1.96875-16.75c6.554688-55.625 34.542969-104.566406 80.925781-141.527344 34.695313-27.640625 67.378907-38.878906 68.757813-39.339844l4.554687-1.539062 99.792969 30.355469 99.792969-30.355469 4.554687 1.539062c1.378906.460938 34.0625 11.699219 68.757813 39.339844 46.382812 36.960938 74.371093 85.902344 80.925781 141.527344l1.96875 16.75zm0 0" fill="#c6715a"/><path d="m481.273438 199.15625c13.179687 29.386719 31.195312 84.78125 22.84375 155.925781l-1.941407 16.527344-48.019531-10.800781c-5.578125 13.289062-16.398438 34.960937-35.035156 58.003906-27.246094 33.703125-77.207032 77.070312-160.433594 92.25l-2.609375.476562-.078125-.007812v-481.175781l99.792969-30.355469 4.554687 1.539062c1.378906.460938 34.0625 11.699219 68.757813 39.339844 46.382812 36.960938 74.371093 85.902344 80.925781 141.527344l1.96875 16.75zm0 0" fill="#b35f49"/><path d="m376.652344 281.5625 21.808594 44.566406-19.449219 40.496094-34.925781 19.679688 1.769531.578124-32.28125 62.113282-57.574219-17.867188-57.574219 17.867188-32.28125-62.113282 1.769531-.578124-34.925781-19.679688-19.449219-40.496094 21.808594-44.566406-57.175781-59.414062 21.816406-90.941407 65.425781-55.558593 90.585938 17.855468 90.585938-17.855468 65.425781 55.558593 21.816406 90.941407zm0 0" fill="#ffa001"/><path d="m376.652344 281.5625 21.808594 44.566406-19.449219 40.496094-34.925781 19.679688 1.769531.578124-32.28125 62.113282-57.574219-17.867188v-337.625l90.585938-17.855468 65.425781 55.558593 21.816406 90.941407zm0 0" fill="#f77e01"/><path d="m452.097656 227.117188-25.195312-105.054688-75.667969-64.261719-95.234375 18.777344-95.234375-18.777344-75.664063 64.261719-25.199218 105.054688 55.417968 57.589843-20.234374 41.34375 25.207031 52.460938 32.234375 18.179687 37.570312 72.273438 65.902344-20.457032 65.910156 20.457032 37.5625-72.273438 32.234375-18.167968 25.207031-52.472657-20.234374-41.34375zm-146.859375 201.898437-49.238281-15.277344-49.238281 15.277344-16.617188-31.960937 31.992188-11.203126 33.863281-11.214843 33.851562 11.203125 32.003907 11.214844zm74.769531-102.820313-13.703124 28.527344-23.96875 13.507813-41.789063-13.828125-27.941406-9.785156v-36.699219h40.816406v-98.535157h39.707031v-33.207031h-72.917968v98.535157h-48.421876v-98.535157h-72.917968v33.207031h39.707031v98.535157h40.816406v36.699219l-27.941406 9.785156-41.789063 13.828125-23.96875-13.507813-13.703124-28.527344 23.378906-47.777343-58.925782-61.230469 18.421876-76.835938 55.195312-46.859374 85.9375 16.9375 85.9375-16.9375 55.195312 46.859374 18.417969 76.835938-58.925781 61.242188zm0 0" fill="#c6715a"/><path d="m396.679688 284.707031 20.234374 41.34375-25.207031 52.472657-32.234375 18.167968-37.5625 72.273438-65.910156-20.457032v-34.769531l49.238281 15.277344 16.617188-31.960937-32.003907-11.214844-33.851562-11.203125v-99.925781h24.210938v-98.535157h72.917968v33.207031h-39.707031v98.535157h-40.816406v36.699219l27.941406 9.785156 41.789063 13.828125 23.96875-13.507813 13.703124-28.527344-23.382812-47.765624 58.925781-61.242188-18.417969-76.835938-55.195312-46.859374-85.9375 16.9375v-33.851563l95.234375-18.777344 75.664063 64.261719 25.199218 105.054688zm0 0" fill="#b35f49"/></svg>