<?xml version="1.0" encoding="iso-8859-1"?>
<!-- Generator: Adobe Illustrator 19.0.0, SVG Export Plug-In . SVG Version: 6.00 Build 0)  -->
<svg version="1.1" id="Capa_1" xmlns="http://www.w3.org/2000/svg" xmlns:xlink="http://www.w3.org/1999/xlink" x="0px" y="0px"
	 viewBox="0 0 512 512" style="enable-background:new 0 0 512 512;" xml:space="preserve">
<g>
	<g>
		<path fill="#b60011" d="M185.454,459.628c-1.869-1.859-4.438-2.929-7.068-2.929c-2.641,0-5.209,1.07-7.069,2.929
			c-1.87,1.86-2.929,4.439-2.929,7.069s1.06,5.209,2.929,7.069c1.85,1.86,4.429,2.929,7.069,2.929c2.629,0,5.198-1.07,7.068-2.929
			c1.86-1.86,2.93-4.439,2.93-7.069S187.314,461.488,185.454,459.628z"/>
	</g>
</g>
<g>
	<g>
		<path fill="#b60011" d="M461.902,104.948L287.078,8.087c-19.458-10.782-42.693-10.783-62.155,0L50.098,104.949
			c-20.385,11.295-33.047,32.787-33.047,56.091v54.431c0,0.023,0,0.045,0,0.068v135.424c0,23.303,12.662,44.796,33.047,56.091
			l92.73,51.377c4.831,2.676,10.914,0.931,13.591-3.9c2.676-4.83,0.931-10.915-3.899-13.59l-13.627-7.55
			c0.026-0.292,0.045-0.587,0.045-0.886V289.013l85.228,47.22c6.921,3.834,14.308,6.335,21.838,7.506v147.068
			c-3.917-0.921-7.75-2.368-11.389-4.384l-22.208-12.305c-4.83-2.676-10.914-0.931-13.591,3.9c-2.676,4.83-0.931,10.915,3.899,13.59
			l22.208,12.305C234.652,509.305,245.325,512,256,512c10.674,0,21.348-2.695,31.078-8.086l174.824-96.862
			c20.385-11.295,33.047-32.787,33.047-56.091V215.538c0-0.023,0-0.045,0-0.068v-54.432
			C494.949,137.735,482.287,116.243,461.902,104.948z M474.953,161.038v48.661l-81.894,45.374v-45.701
			c0-5.558-1.162-10.947-3.297-15.884l83.034-46.006C474.192,151.803,474.953,156.364,474.953,161.038z M391.436,88.766
			l60.776,33.673c3.855,2.137,7.293,4.819,10.275,7.896l-85.201,47.205c-1.531-1.167-3.147-2.24-4.86-3.188l-34.077-18.88
			c29.99-1.014,54.078-25.711,54.078-55.943C392.427,95.848,392.088,92.25,391.436,88.766z M350.06,66.213
			c10.814,4.423,22.37,15.498,22.37,33.317c0,19.848-16.147,35.995-35.995,35.995h-34.09l-0.068-0.038
			c0.655-2.344,1.013-4.811,1.013-7.361c0-12.692-5.091-24.212-13.33-32.644l20.796-21.174
			C323.242,61.595,339.245,61.792,350.06,66.213z M234.615,25.577c13.393-7.421,29.382-7.419,42.772,0l38.899,21.552
			c-7.239,2.832-13.978,7.245-19.796,13.167l-23.606,24.035c-5.089-1.905-10.593-2.952-16.339-2.952h-5.296
			c-4.568,0-8.981,0.671-13.157,1.898l-22.57-22.981c-5.819-5.925-12.56-10.337-19.802-13.169L234.615,25.577z M283.295,128.126
			c0,4.08-3.318,7.399-7.398,7.399h-43.999c-4.08,0-7.398-3.319-7.398-7.399c0-14.75,12.001-26.751,26.75-26.751h5.296
			C271.294,101.376,283.295,113.375,283.295,128.126z M161.948,66.213c10.814-4.423,26.82-4.618,39.305,8.094L220,93.393
			c-9.508,8.563-15.497,20.96-15.497,34.732c0,2.564,0.362,5.044,1.024,7.399h-29.952c-19.849,0-35.996-16.147-35.996-35.995
			C139.578,81.711,151.135,70.636,161.948,66.213z M118.941,422.335l-59.152-32.773c-14.028-7.772-22.742-22.563-22.742-38.599
			V232.56l81.894,45.374V422.335z M118.941,209.373v45.7l-81.894-45.374v-48.66c0-4.779,0.79-9.441,2.248-13.845l83.069,46.025
			C120.152,198.229,118.941,203.713,118.941,209.373z M134.965,177.341l-85.239-47.227c2.933-2.984,6.3-5.589,10.063-7.674
			l60.784-33.677c-0.652,3.485-0.992,7.084-0.992,10.768c0,30.23,24.085,54.925,54.071,55.943l-34.077,18.881
			C137.957,175.249,136.42,176.25,134.965,177.341z M246.003,323.361c-4.18-0.946-8.27-2.471-12.146-4.619l-94.919-52.59v-56.779
			c0-2.207,0.369-4.359,1.052-6.389l84.221,46.662c6.909,3.828,14.278,6.34,21.793,7.535V323.361z M233.902,232.156l-78.697-43.602
			l59.62-33.033h82.353l59.927,33.202l-78.391,43.433C264.685,239.928,247.932,239.928,233.902,232.156z M288.404,249.647
			l83.698-46.372c0.622,1.945,0.962,3.997,0.962,6.1v56.779l-94.919,52.59c-3.876,2.148-7.966,3.672-12.146,4.619v-66.092h-0.001
			C273.725,256.116,281.308,253.578,288.404,249.647z M474.953,350.961c0,16.037-8.713,30.827-22.742,38.6l-59.152,32.773v-28.029
			c0-5.522-4.477-9.998-9.998-9.998s-9.998,4.476-9.998,9.998v38.197c0,0.299,0.019,0.594,0.045,0.886l-95.721,53.035
			c-3.638,2.016-7.471,3.463-11.389,4.384V343.74c7.529-1.172,14.916-3.672,21.838-7.506l85.228-47.22v29.975
			c0,5.522,4.477,9.998,9.998,9.998s9.998-4.476,9.998-9.998v-41.055l81.894-45.374V350.961z"/>
	</g>
</g>
<g>
	<g>
		<path fill="#b60011" d="M390.133,351.471c-1.87-1.861-4.439-2.929-7.069-2.929s-5.209,1.07-7.069,2.929c-1.87,1.86-2.929,4.439-2.929,7.069
			s1.06,5.209,2.929,7.069c1.86,1.87,4.439,2.929,7.069,2.929s5.209-1.06,7.069-2.929c1.859-1.86,2.929-4.439,2.929-7.069
			S391.992,353.331,390.133,351.471z"/>
	</g>
</g>
<g>
</g>
<g>
</g>
<g>
</g>
<g>
</g>
<g>
</g>
<g>
</g>
<g>
</g>
<g>
</g>
<g>
</g>
<g>
</g>
<g>
</g>
<g>
</g>
<g>
</g>
<g>
</g>
<g>
</g>
</svg>
